<svg width="40" height="40" viewBox="0 0 40 40" fill="none" xmlns="http://www.w3.org/2000/svg">
<path d="M19.4431 20.5569V23.4283H16.5717V20.5569H19.4431Z" fill="#2B3339"/>
<path d="M18.022 21.9781V24.8495H15.1506V21.9781H18.022Z" fill="#2B3339"/>
<path d="M16.6008 23.3994V26.2708H13.7295V23.3994H16.6008Z" fill="#2B3339"/>
<path d="M15.1797 24.8207V27.6921H12.3083V24.8207H15.1797Z" fill="#2B3339"/>
<path d="M13.7581 26.2419V29.1133H10.8867V26.2419H13.7581Z" fill="#2B3339"/>
<path d="M12.3372 27.6631V30.5345H9.46578V27.6631H12.3372Z" fill="#2B3339"/>
<path d="M10.9155 29.0844V31.9557H8.04415V29.0844H10.9155Z" fill="#2B3339"/>
<path d="M9.49463 30.5059V33.3772H6.62326V30.5059H9.49463Z" fill="#2B3339"/>
<path d="M8.07324 31.9271V34.7985H5.20187V31.9271H8.07324Z" fill="#2B3339"/>
<path d="M6.6521 33.3483V36.2196H3.78073V33.3483H6.6521Z" fill="#2B3339"/>
<path d="M5.23071 34.7695V37.6409H2.35934V34.7695H5.23071Z" fill="#2B3339"/>
<path d="M27.7678 12.2323V15.1037H24.8964V12.2323H27.7678Z" fill="#487494"/>
<path d="M37.5647 12.2831V15.1545H34.6933V12.2831H37.5647Z" fill="#487494"/>
<path d="M32.6411 7.3595V10.2309H29.7697V7.3595H32.6411Z" fill="#487494"/>
<path d="M32.6917 17.1559V20.0273H29.8203V17.1559H32.6917Z" fill="#487494"/>
<path d="M22.8953 17.1055V19.9768H20.0239V17.1055H22.8953Z" fill="#487494"/>
<path d="M22.8442 7.30872V10.1801H19.9729V7.30872H22.8442Z" fill="#487494"/>
<path d="M27.7173 2.43579V5.30716H24.8459V2.43579H27.7173Z" fill="#487494"/>
<path d="M17.9717 12.1818V15.0531H15.1003V12.1818H17.9717Z" fill="#487494"/>
<path d="M27.8188 22.0291V24.9004H24.9475V22.0291H27.8188Z" fill="#487494"/>
<path d="M25.5708 3.1322L26.9921 4.55346L15.2667 16.2788L13.8454 14.8576L25.5708 3.1322Z" fill="#487494"/>
<path d="M35.4182 12.9795L36.8395 14.4007L25.1141 26.1261L23.6928 24.7049L35.4182 12.9795Z" fill="#487494"/>
<path d="M30.4944 8.05591L31.9156 9.47717L20.1903 21.2025L18.769 19.7813L30.4944 8.05591Z" fill="#487494"/>
<path d="M13.8452 14.8575L25.1138 26.1261L23.6417 27.5981L12.3732 16.3296L13.8452 14.8575Z" fill="#487494"/>
</svg>
